<?xml version="1.0" encoding="UTF-8" standalone="no"?>
<!-- Created with Inkscape (http://www.inkscape.org/) -->

<svg
   xmlns:dc="http://purl.org/dc/elements/1.1/"
   xmlns:cc="http://creativecommons.org/ns#"
   xmlns:rdf="http://www.w3.org/1999/02/22-rdf-syntax-ns#"
   xmlns:svg="http://www.w3.org/2000/svg"
   xmlns="http://www.w3.org/2000/svg"
   xmlns:sodipodi="http://sodipodi.sourceforge.net/DTD/sodipodi-0.dtd"
   xmlns:inkscape="http://www.inkscape.org/namespaces/inkscape"
   width="647.05798"
   height="500"
   id="svg3116"
   version="1.1"
   inkscape:version="0.91 r13725"
   sodipodi:docname="shaking hands.svg"
   viewBox="0 0 606.61686 468.75">
  <defs
     id="defs3118" />
  <sodipodi:namedview
     id="base"
     pagecolor="#ffffff"
     bordercolor="#666666"
     borderopacity="1.0"
     inkscape:pageopacity="0.0"
     inkscape:pageshadow="2"
     inkscape:zoom="0.13"
     inkscape:cx="50.539531"
     inkscape:cy="699.16825"
     inkscape:document-units="in"
     inkscape:current-layer="layer1"
     showgrid="false"
     inkscape:window-width="1825"
     inkscape:window-height="767"
     inkscape:window-x="312"
     inkscape:window-y="108"
     inkscape:window-maximized="0"
     inkscape:snap-global="false"
     showguides="true"
     inkscape:guide-bbox="true"
     showborder="true" />
  <metadata
     id="metadata3121">
    <rdf:RDF>
      <cc:Work
         rdf:about="">
        <dc:format>image/svg+xml</dc:format>
        <dc:type
           rdf:resource="http://purl.org/dc/dcmitype/StillImage" />
        <dc:title></dc:title>
      </cc:Work>
    </rdf:RDF>
  </metadata>
  <g
     inkscape:groupmode="layer"
     id="layer3"
     inkscape:label="FONDO"
     sodipodi:insensitive="true">
    <path
       style="opacity:1;vector-effect:none;fill:#ffffff;fill-opacity:1;fill-rule:evenodd;stroke:none;stroke-width:1.84584618;stroke-linecap:butt;stroke-linejoin:miter;stroke-miterlimit:4;stroke-dasharray:none;stroke-dashoffset:0;stroke-opacity:1;paint-order:normal"
       d="M 606.61688,2.6089479e-6 V 468.75 H -1.7640991e-5 V 2.6089479e-6 Z"
       id="rect4763"
       inkscape:connector-curvature="0" />
  </g>
  <g
     inkscape:label="Capa 1"
     inkscape:groupmode="layer"
     id="layer1"
     transform="translate(0,-583.61218)">
    <path
       style="fill:#000000;stroke:#ffffff;stroke-width:1.14588535"
       d="m 246.81983,980.00346 c -4.06203,-1.56698 -7.96207,-3.32751 -8.66654,-3.91227 -0.70463,-0.58475 -3.07786,-0.77161 -5.27384,-0.41527 -2.45137,0.39782 -5.68438,-0.0589 -8.37516,-1.18319 -2.41037,-1.00711 -5.73744,-1.84326 -7.39371,-1.8581 -4.36858,-0.039 -19.56839,-4.25489 -22.67133,-6.28802 -1.79595,-1.17676 -4.04659,-1.51549 -6.96655,-1.04859 -9.7172,1.55386 -34.73967,-4.21154 -39.54311,-9.11106 -1.42078,-1.44934 -5.16164,-3.55852 -8.31282,-4.68709 -3.15119,-1.12855 -7.27638,-3.47043 -9.16709,-5.20411 -1.89071,-1.73368 -4.51444,-3.70324 -5.8307,-4.37678 -2.60862,-1.33492 -9.36328,-16.9839 -10.0539,-23.2928 -0.3936,-3.59589 -0.75272,-3.8267 -11.74076,-7.54617 -10.513566,-3.55892 -30.795436,-8.49163 -48.605296,-11.82122 -5.67848,-1.0616 -12.43323,-1.11292 -28.07422,-0.21333 -21.4101,1.23141 -24.60715,0.8274 -24.60715,-3.10962 0,-3.06412 5.06875,-4.37877 20.62593,-5.34967 16.66605,-1.0401 29.90569,-0.75754 37.2413,0.7948 3.15117,0.66686 9.08112,1.92412 13.17767,2.79389 4.09655,0.8698 9.6701,1.87967 12.38568,2.2442 7.69449,1.03285 34.015956,10.07887 46.054386,15.82774 l 10.88591,5.19844 9.74003,-1.15775 c 8.79559,-1.04549 10.35124,-0.92487 16.04241,1.24387 11.95019,4.55382 18.31903,10.4708 18.32992,17.02955 0,1.41805 0.39097,2.57568 0.86364,2.57255 1.4923,-0.0106 6.64442,-4.97631 10.09846,-9.73432 5.86922,-8.08503 7.38914,-9.37215 13.53428,-11.46093 8.42353,-2.86325 13.26556,-1.76707 18.33003,4.14971 l 3.9689,4.63676 2.32305,-2.32299 c 3.24206,-3.24206 9.59117,-4.1585 17.12698,-2.47206 8.78871,1.96684 12.82498,6.06965 12.82498,13.0362 0,2.84351 -0.52998,6.56423 -1.17786,8.26826 -0.64788,1.70402 -0.92954,3.34666 -0.62587,3.6503 0.30365,0.30363 2.98961,1.00746 5.96889,1.56406 7.04571,1.31627 10.33531,3.56706 12.38578,8.47442 1.48815,3.56172 2.79136,4.54351 5.48396,4.13163 0.45973,-0.0702 4.06929,0.63446 8.02121,1.56621 9.84923,2.32216 10.89277,2.2072 14.72154,-1.62157 4.48888,-4.48887 4.57505,-9.45841 0.19835,-11.44212 -1.73315,-0.78555 -5.59515,-2.67431 -8.58223,-4.19728 -3.31663,-1.69094 -9.50557,-3.32395 -15.8964,-4.19432 -10.73948,-1.46263 -12.88766,-2.7796 -10.0705,-6.17403 1.18242,-1.42479 2.66062,-1.65258 6.71706,-1.03517 2.86047,0.43539 7.26341,0.91854 9.78436,1.07363 2.52095,0.15511 6.17828,1.1144 8.1272,2.13176 7.11949,3.71628 16.22276,6.70811 28.80824,9.46792 14.05451,3.082 22.00306,3.54433 25.8772,1.50518 3.47695,-1.83014 4.18395,-3.19471 4.20412,-8.1143 0.0151,-3.7425 -0.37504,-4.35926 -3.13365,-4.94946 -5.48981,-1.17459 -17.69683,-6.54996 -23.13142,-10.186 -7.14367,-4.77943 -10.97378,-6.37172 -15.32655,-6.37172 -6.48169,0 -17.97687,-7.41174 -17.97687,-11.59098 0,-3.03042 1.91534,-3.63929 5.44065,-1.72953 1.73441,0.93959 7.79432,3.75086 13.46645,6.24729 5.67214,2.49642 14.43815,6.35933 19.48005,8.58421 5.0419,2.22491 12.5188,4.89339 16.61534,5.93 4.09652,1.03659 9.65786,2.62248 12.35836,3.52422 6.36723,2.1261 13.98829,2.09109 17.08574,-0.0786 2.57834,-1.80592 7.22422,-8.62039 7.22422,-10.5962 0,-1.57467 -10.5041,-9.54726 -18.9071,-14.35039 -5.99105,-3.42451 -17.64228,-10.75224 -49.00871,-30.82275 -5.83577,-3.73411 -7.67962,-5.53106 -7.4446,-7.25522 0.44061,-3.23245 4.28677,-2.55374 12.17916,2.14922 3.55293,2.11719 12.38989,7.20118 19.63761,11.29777 7.24774,4.0966 16.11412,9.19251 19.70304,11.32426 15.53019,9.22454 26.92543,15.462 31.37744,17.17515 2.6305,1.01222 5.99286,2.68807 7.47196,3.72413 1.47924,1.03603 3.88949,1.88372 5.3561,1.88372 3.59076,0 9.08976,-2.95607 10.54008,-5.66596 3.21663,-6.01019 -0.37058,-19.54347 -5.1802,-19.54347 -1.3739,0 -3.95273,-1.16021 -5.7308,-2.57825 -1.77808,-1.41804 -5.38715,-4.12519 -8.02015,-6.0159 -25.53331,-18.33476 -53.20679,-41.79611 -62.71329,-53.16784 -3.32133,-3.97313 -3.76286,-4.13356 -22.20186,-8.06843 -5.76988,-1.23127 -12.31207,-2.99972 -14.53819,-3.92986 -2.22612,-0.93014 -5.07971,-1.42125 -6.34122,-1.09137 -1.26151,0.32988 -4.77444,-0.18108 -7.80658,-1.13549 -9.07231,-2.85566 -11.99123,-2.96652 -20.40099,-0.77486 -7.20577,1.87788 -20.25432,6.34302 -26.36384,9.02155 -1.26048,0.55261 -4.35436,1.80556 -6.87531,2.78436 -23.87819,9.27109 -27.06272,9.92885 -47.55423,9.82248 -25.27595,-0.13129 -31.13831,-1.32143 -47.08248,-9.55904 -11.68024,-6.03463 -14.63927,-15.18912 -7.88038,-24.37975 2.96075,-4.02593 4.79085,-5.16213 12.31828,-7.64797 4.86256,-1.60576 11.67702,-3.51215 15.14333,-4.23644 6.72176,-1.40452 21.47616,-8.32491 29.52006,-13.84606 6.36573,-4.36934 9.2913,-5.22808 20.32593,-5.96619 19.36638,-1.29541 66.29577,-15.69737 88.13418,-27.04707 7.0944,-3.687 14.91748,-7.02895 17.38479,-7.42656 2.46732,-0.3976 5.32495,-1.17513 6.35028,-1.72782 1.02532,-0.55268 3.73248,-1.35536 6.0159,-1.78374 4.51754,-0.84749 5.0805,-1.76413 2.43281,-3.96145 -0.94534,-0.78458 -1.71881,-3.15001 -1.71881,-5.25649 0,-4.06347 -2.34495,-6.20237 -6.79992,-6.20237 -1.60321,0 -2.36717,0.73961 -2.36717,2.29177 0,1.52783 -0.76385,2.29177 -2.29178,2.29177 -1.34665,0 -2.29176,-0.76394 -2.29176,-1.85243 0,-1.41825 -0.73853,-1.69638 -3.15119,-1.18673 -8.72132,1.84235 -26.31581,4.26413 -37.86016,5.21124 -7.11561,0.58376 -13.56122,1.56036 -14.32357,2.17019 -0.76248,0.60984 -5.5116,2.06335 -10.55348,3.22999 -5.79589,1.34112 -11.86496,3.75362 -16.50351,6.56021 -9.46157,5.72491 -32.03332,16.80642 -34.23275,16.80642 -0.93342,0 -5.12405,1.23619 -9.3126,2.74704 -4.18844,1.51087 -11.98561,3.57747 -17.32693,4.59246 -5.34132,1.01497 -13.79577,3.11775 -18.7876,4.67284 -8.80968,2.74439 -9.49102,2.78833 -23.20015,1.49634 -11.16689,-1.0524 -17.06361,-1.01689 -28.16504,0.16957 -7.722646,0.82535 -21.002436,1.75731 -29.510626,2.07101 -29.39797,1.08392 -69.89902,-4.65754 -69.89902,-9.90896 0,-0.53688 0.78168,-1.62487 1.73705,-2.41774 1.84134,-1.52819 6.4701,-1.31298 26.91008,1.25112 13.64227,1.71138 53.25781,1.94267 72.190776,0.42148 9.13448,-0.73392 17.22949,-0.76156 22.3447,-0.0763 12.58103,1.68544 16.12376,1.41017 33.23068,-2.58216 8.82332,-2.05914 19.39411,-4.52062 23.49064,-5.47 4.09654,-0.94937 9.2653,-2.84677 11.48615,-4.21645 2.22071,-1.36969 7.3772,-4.11662 11.45883,-6.10432 14.76016,-7.1881 29.29846,-14.63768 34.35673,-17.6049 5.76931,-3.38421 10.09663,-4.77751 16.03494,-5.16299 25.88452,-1.68023 41.94056,-3.41101 53.93501,-5.81407 l 14.40193,-2.88536 9.08871,4.14715 c 4.99881,2.28095 12.66661,5.14076 17.03953,6.35516 4.37293,1.21438 8.47234,2.72953 9.1098,3.367 1.6487,1.64871 6.1047,1.41619 12.73239,-0.66443 3.28123,-1.03008 13.79406,-2.27013 24.60285,-2.90209 13.02252,-0.76138 22.40022,-1.97611 30.2501,-3.91839 6.25733,-1.54826 13.32963,-2.81497 15.71651,-2.81497 3.74659,0 15.04683,-3.63873 26.83078,-8.63964 1.89072,-0.80239 6.13176,-2.24891 9.42434,-3.21449 3.2927,-0.9656 14.73539,-4.88241 25.42822,-8.70403 10.69284,-3.82164 27.07774,-8.99508 36.41108,-11.49654 17.45301,-4.67768 34.49421,-10.42268 52.39841,-17.66474 5.6205,-2.27349 10.4783,-3.87455 10.7949,-3.55792 1.0441,1.04417 -4.8212,6.3699 -10.6759,9.69371 -6.8525,3.89031 -22.0389,9.77208 -37.8396,14.65551 -6.3024,1.94783 -17.64669,5.45605 -25.20953,7.79605 -12.50229,3.86829 -25.72122,8.62986 -39.53304,14.24015 -9.82241,3.98983 -20.10823,7.1359 -32.08479,9.81364 -16.96817,3.79373 -31.6946,7.29205 -38.38715,9.11895 -3.15119,0.86019 -13.72198,2.11152 -23.49066,2.78075 -9.76866,0.66923 -20.59728,2.0262 -24.06359,3.01551 -14.99356,4.27922 -19.83412,5.51589 -36.05825,9.21207 -16.68764,3.80173 -23.00972,6.25773 -37.27839,14.4818 -6.09944,3.5156 -31.74023,13.87711 -44.76264,18.08876 -11.29946,3.65441 -34.89873,7.98719 -43.60196,8.00523 -4.65447,0.009 -9.23619,0.54838 -10.18154,1.19717 -1.36383,0.93605 -1.13971,1.10988 1.08551,0.84187 2.31205,-0.27847 3.09524,0.4209 4.46228,3.98503 1.78806,4.66141 1.20526,6.54731 -1.36416,4.41489 -0.88073,-0.73094 -2.40532,-1.02045 -3.38792,-0.64338 -1.21866,0.46763 -2.37394,-0.45007 -3.63396,-2.88665 l -1.84729,-3.57224 -3.12801,2.22742 c -1.72055,1.22506 -8.01422,4.66233 -13.98612,7.63836 -5.97189,2.97604 -11.02261,5.55181 -11.22384,5.72392 -0.20132,0.17213 0.22507,1.26554 0.9472,2.42984 2.06625,3.33093 -0.29576,7.63456 -6.41444,11.68745 -4.45955,2.9539 -6.60338,3.61029 -11.83813,3.62465 -3.51581,0.009 -7.09281,0.46134 -7.94879,1.00374 -2.1168,1.34119 6.44045,4.34916 14.73403,5.17919 3.4663,0.34691 10.16972,1.65984 14.89652,2.91759 6.19752,1.64913 12.30955,2.29438 21.9171,2.31382 12.96604,0.0263 13.76404,-0.12297 29.79303,-5.57029 9.05855,-3.07852 18.00941,-6.20576 19.89083,-6.94945 1.88144,-0.7437 6.52227,-2.06822 10.31297,-2.94343 3.79071,-0.87519 10.50171,-2.89112 14.91337,-4.47982 10.07863,-3.62947 12.47743,-3.63083 24.56881,-0.0136 5.39436,1.61351 11.35469,3.39036 13.24539,3.94856 1.89073,0.55819 11.68678,2.6799 21.76896,4.71492 17.805,3.5938 18.67565,3.66151 30.33034,2.35914 9.89895,-1.10619 12.27046,-1.06961 13.54893,0.20891 2.23998,2.23998 -0.9701,5.1148 -6.74181,6.03775 -2.49024,0.39818 -4.7631,1.105 -5.05095,1.57067 -0.51634,0.83555 15.41673,8.01938 17.78632,8.01938 1.63667,0 7.48161,5.48119 6.68957,6.27326 -0.34354,0.34345 -3.15474,-0.35541 -6.24726,-1.55302 -8.07827,-3.12842 -24.78333,-8.28639 -25.26781,-7.80188 -0.93996,0.94002 27.28766,24.99762 36.533,31.13593 l 10.01252,6.64774 6.60282,-2.9012 c 3.63154,-1.59568 8.66529,-3.53743 11.18624,-4.31503 22.03458,-6.79661 50.673,-31.7523 50.93795,-44.38761 0.0388,-1.84987 0.74354,-2.57823 2.49481,-2.57823 2.20101,0 2.38229,0.47844 1.84545,4.87 -0.32751,2.6785 -0.99715,5.85527 -1.48829,7.05951 -0.77232,1.89425 -0.51907,2.08548 1.87881,1.41823 1.52425,-0.42421 8.95921,-1.56627 16.52205,-2.53791 7.56284,-0.97166 19.42276,-2.99682 26.35536,-4.50038 6.93261,-1.50357 15.69863,-3.26173 19.48005,-3.90698 28.5715,-4.87553 41.8103,-7.30117 45.2625,-8.29305 5.7542,-1.65328 23.1511,-1.86319 23.7027,-0.28599 0.6595,1.88553 -7.3403,3.62344 -65.52755,14.23572 -2.52093,0.45977 -12.47319,2.44408 -22.11615,4.40959 -9.64297,1.96555 -18.63394,3.57367 -19.97979,3.57367 -3.10201,0 -17.11309,3.43768 -18.63597,4.57235 -0.63024,0.46964 -3.98195,1.75573 -7.44826,2.85804 -4.08771,1.29992 -8.11423,3.72189 -11.45886,6.89258 -2.83605,2.68864 -7.72016,6.81081 -10.8536,9.16041 -5.71921,4.28855 -23.63215,13.18498 -26.54785,13.18498 -2.04359,0 -1.97253,2.2558 0.20877,6.62829 0.97205,1.9485 2.2291,6.37998 2.79343,9.84772 0.56448,3.46774 1.81098,7.50266 2.77006,8.9665 0.95912,1.46381 2.30404,5.27344 2.98872,8.46581 1.04631,4.87855 0.91659,6.68618 -0.81325,11.3334 -3.85704,10.36224 -17.09683,16.31111 -25.54877,11.47959 -4.32388,-2.47178 -4.92111,-2.16257 -8.0212,4.15303 -5.43916,11.08122 -12.90586,15.5077 -24.59103,14.57834 -4.65768,-0.37044 -5.20198,-0.161 -5.20198,2.00177 0,8.26676 -7.4023,15.30887 -17.0683,16.23766 -4.67395,0.44911 -19.37818,-1.67824 -26.7618,-3.87177 -1.55623,-0.46233 -2.00531,0.0863 -2.00531,2.44958 0,3.7488 -4.97909,10.87425 -10.00529,14.31827 -3.52899,2.41811 -4.16748,2.48748 -10.90861,1.18509 -3.93818,-0.76086 -8.86559,-2.37475 -10.94985,-3.58645 -2.08435,-1.21167 -4.46183,-2.20306 -5.28344,-2.20306 -0.82149,0 -3.59933,3.25582 -6.17278,7.23514 -5.27209,8.15214 -7.98934,9.80577 -17.24545,10.49517 -4.97944,0.37088 -8.16924,-0.17417 -13.85433,-2.36726 z m 16.6991,-5.77565 c 4.66077,-1.96581 4.5534,-2.17711 -2.19367,-4.31532 -1.12595,-0.3568 -2.93073,-2.20139 -4.01061,-4.09906 -2.4342,-4.27754 -3.18625,-4.31023 -5.29605,-0.23016 -0.92002,1.77907 -2.53951,3.95405 -3.59899,4.83328 -1.74667,1.44962 -1.51337,1.78109 2.50273,3.5557 5.6672,2.50425 7.19191,2.53516 12.59659,0.25556 z m -21.87323,-9.61523 c 3.19211,-1.97288 5.12314,-4.72808 8.62291,-12.30334 4.9909,-10.80275 4.91951,-10.58654 3.49746,-10.58654 -0.55677,0 -1.2686,0.98017 -1.58189,2.17814 -0.31329,1.19797 -1.53686,2.69584 -2.71918,3.3286 -3.00668,1.60911 -10.69822,-1.20144 -13.38624,-4.8915 -1.16468,-1.59885 -2.52163,-2.907 -3.0154,-2.907 -1.09524,0 -11.51579,15.36331 -11.51579,16.97807 0,1.93367 -6.89582,7.0855 -9.48416,7.0855 -4.53219,0 -0.39051,2.0962 5.27338,2.66896 3.04094,0.30752 5.87702,0.91836 6.30235,1.35741 1.56207,1.6127 13.92126,-0.38348 18.00656,-2.9083 z m 27.19598,-1.4547 c 1.56529,-2.38895 1.51636,-2.91094 -0.53673,-5.72942 -2.67335,-3.66993 -5.00489,-3.99314 -5.83748,-0.80924 -0.32968,1.26046 -1.21841,2.29177 -1.97504,2.29177 -0.75674,0 -1.07897,-0.77349 -0.71619,-1.71883 0.36279,-0.94536 0.16008,-1.71883 -0.45033,-1.71883 -1.75595,0 -1.30584,2.27718 1.27526,6.45358 2.77717,4.49346 5.80631,4.94597 8.24051,1.23097 z m -81.8901,-5.38132 c 4.21719,-0.62394 11.58271,-1.31199 16.36759,-1.529 10.07153,-0.45676 14.69574,-2.8871 14.75476,-7.75463 0.0298,-2.45902 -0.7148,-3.19478 -4.32961,-4.2778 -2.40121,-0.71941 -5.53922,-2.55715 -6.97351,-4.08387 -2.18726,-2.3282 -2.39525,-3.17314 -1.28947,-5.23928 2.67896,-5.00568 0.32805,-4.91019 -3.13801,0.12751 -4.50288,6.54469 -8.20523,8.99502 -13.59146,8.99502 -2.73328,0 -5.54322,1.00227 -7.9442,2.83358 -4.14604,3.1623 -11.62191,5.16939 -19.95409,5.35709 -8.75538,0.19724 -9.09638,1.59198 -1.02592,4.19601 8.20855,2.64864 15.88644,3.03795 27.12392,1.3754 z m -29.57359,-15.34992 c 0,-0.24309 -0.77026,-1.91894 -1.71172,-3.72414 -0.94147,-1.8052 -1.71493,-3.90858 -1.71883,-4.6742 -0.0136,-2.60775 4.79038,-4.01782 12.10135,-3.55227 8.1367,0.51809 8.38982,-0.29356 1.0973,-3.51939 -4.34851,-1.92356 -6.15364,-2.08595 -13.2634,-1.1932 -4.52648,0.56835 -8.67492,0.7583 -9.21887,0.42212 -0.54395,-0.33618 -2.01916,-0.06 -3.27826,0.61389 -1.83858,0.98399 -2.76629,0.74808 -4.71269,-1.19838 -2.32614,-2.32616 -12.1528,-6.40482 -13.11442,-5.44328 -0.25553,0.25558 1.16204,3.96563 3.15003,8.24459 3.2754,7.04962 4.21228,8.08853 9.98032,11.06794 4.95102,2.5573 7.95726,3.30029 13.52741,3.34315 3.93898,0.0304 7.16178,-0.14383 7.16178,-0.38683 z m 15.56318,-0.70394 c 1.81554,0 2.2213,-2.93393 0.54878,-3.96762 -0.59197,-0.36589 -3.14994,-0.33365 -5.68441,0.0716 l -4.60806,0.73683 2.53322,2.11857 c 1.39327,1.16521 3.21993,1.87601 4.05928,1.57957 0.83936,-0.29643 2.25741,-0.53899 3.15119,-0.53899 z m 78.19143,-2.65377 c 1.81371,-3.03723 1.80901,-3.31383 -0.0802,-4.71084 -2.36157,-1.7466 -7.48757,-1.07006 -10.27481,1.3561 -3.51741,3.0618 0.83672,7.29414 6.9169,6.72329 0.83088,-0.0781 2.37783,-1.59386 3.43766,-3.36855 z m -32.82641,-1.53443 c 2.41175,-2.18258 2.7058,-5.05619 0.72042,-7.04147 -2.32638,-2.32641 -5.22821,-1.5379 -7.84026,2.13039 -2.41883,3.39705 -2.43019,3.55537 -0.3645,5.12004 2.83263,2.14558 4.94792,2.08652 7.48434,-0.20896 z m 38.06827,-7.27874 c -0.61375,-0.61368 -3.67325,-1.36246 -6.79899,-1.66393 -3.12563,-0.30148 -4.65185,-0.27984 -3.39137,0.0482 1.26046,0.32792 3.32306,1.04758 4.58354,1.59922 5.21113,2.28075 7.87876,2.28866 5.60682,0.0166 z m -13.05509,-1.83334 c 0,-0.24767 -0.77346,-0.45033 -1.7188,-0.45033 -0.94537,0 -1.71884,0.49947 -1.71884,1.10991 0,0.61046 0.77347,0.81312 1.71884,0.45035 0.94534,-0.36277 1.7188,-0.86223 1.7188,-1.10993 z M 223.83934,927.481 c 0,-0.27012 -0.81027,-1.30142 -1.80064,-2.29178 -2.64369,-2.64366 -4.6444,-2.19903 -2.20996,0.49109 1.88304,2.08065 4.0106,3.0359 4.0106,1.80069 z m 194.24303,-52.93251 c -0.95385,-2.2828 -1.7343,-5.17627 -1.7343,-6.4299 0,-2.01039 -0.50705,-2.18617 -4.29709,-1.48972 -2.36337,0.43429 -4.71679,1.19502 -5.22982,1.69049 -0.92266,0.89118 10.03211,10.37967 11.98378,10.37967 0.55633,0 0.23114,-1.86777 -0.72257,-4.15054 z M 158.94235,800.69565 c 3.87321,-3.0467 4.16334,-7.3139 0.44094,-6.4856 -21.35632,4.75231 -26.87376,8.86053 -11.89978,8.86053 6.803,0 9.0251,-0.46053 11.45884,-2.37493 z m 190.38804,-77.429 c 1.44519,-0.55461 0.54361,-1.40578 -3.63039,-3.42718 -3.05436,-1.47913 -6.19788,-2.69405 -6.98567,-2.69981 -2.62843,-0.0192 -1.47487,2.28905 2.29178,4.58563 4.00692,2.44304 5.33408,2.68878 8.32428,1.54136 z"
       id="path3824"
       inkscape:connector-curvature="0" />
  </g>
</svg>
